<svg width="95.591" height="40.721" viewBox="0 0 95.591 40.721" xmlns="http://www.w3.org/2000/svg"><g id="svgGroup" stroke-linecap="round" fill-rule="evenodd" font-size="9pt" stroke="#000000" stroke-width="0.25mm" fill="#000000" style="stroke:#000000;stroke-width:0.25mm;fill:#000000"><path d="M 25.694 35.287 L 24.394 35.677 Q 24.134 35.807 23.971 36.067 Q 23.809 36.327 23.614 36.587 Q 22.184 38.277 20.104 39.22 Q 18.024 40.162 15.879 40.552 Q 14.904 40.682 13.896 40.715 Q 12.889 40.747 11.979 40.617 Q 11.069 40.487 10.191 40 Q 9.314 39.512 9.314 38.407 Q 9.314 37.107 10.256 36.49 Q 11.199 35.872 12.304 35.677 Q 13.799 35.352 15.229 35.352 Q 16.659 35.352 18.154 35.222 Q 19.844 35.157 21.534 34.832 L 22.509 34.637 Q 22.704 34.572 22.931 34.54 Q 23.159 34.507 23.289 34.377 Q 23.484 34.052 23.646 33.662 Q 23.809 33.272 23.939 32.882 A 6.896 6.896 0 0 0 24.335 30.604 A 6.583 6.583 0 0 0 24.296 29.892 Q 24.134 28.397 23.614 26.967 Q 22.444 23.717 20.494 20.792 Q 18.544 17.867 17.114 14.682 L 11.784 22.807 L 4.244 34.377 L 1.449 38.602 Q 1.189 39.057 0.799 39.057 A 1.072 1.072 0 0 1 0.666 39.066 A 0.592 0.592 0 0 1 0.084 38.7 A 0.846 0.846 0 0 1 0 38.344 A 0.814 0.814 0 0 1 0.149 37.887 L 0.994 36.652 L 7.429 26.837 Q 8.989 24.432 10.516 22.06 Q 12.044 19.687 13.604 17.347 L 15.489 14.552 L 16.399 13.122 A 0.259 0.259 0 0 0 16.473 12.931 A 0.575 0.575 0 0 0 16.431 12.732 Q 16.334 12.472 16.269 12.342 Q 16.139 12.017 16.009 11.497 A 9.932 9.932 0 0 1 15.655 8.908 A 9.093 9.093 0 0 1 15.684 8.182 Q 15.814 6.557 16.594 4.997 Q 17.114 3.892 17.894 2.82 Q 18.674 1.747 19.779 0.967 Q 20.494 0.447 21.339 0.155 A 2.772 2.772 0 0 1 22.251 0 A 3.056 3.056 0 0 1 23.094 0.122 Q 24.524 0.577 24.654 2.007 A 2.878 2.878 0 0 1 24.701 2.523 A 2.772 2.772 0 0 1 24.556 3.405 Q 24.329 4.087 23.939 4.737 Q 23.614 5.322 23.191 5.875 Q 22.769 6.427 22.379 7.012 L 20.624 9.482 L 18.739 12.277 L 18.154 13.122 A 0.202 0.202 0 0 0 18.089 13.269 A 0.33 0.33 0 0 0 18.154 13.447 Q 18.284 13.642 18.349 13.837 L 18.999 15.202 Q 19.779 16.762 20.656 18.29 Q 21.534 19.817 22.444 21.312 Q 23.224 22.677 24.004 24.205 Q 24.784 25.732 25.239 27.325 Q 25.694 28.917 25.759 30.575 A 7.683 7.683 0 0 1 25.764 30.876 A 7.969 7.969 0 0 1 25.174 33.857 A 13.95 13.95 0 0 0 31.474 29.449 A 17.789 17.789 0 0 1 32.779 26.642 Q 34.079 24.367 35.964 22.677 Q 36.744 21.962 37.654 21.377 Q 38.564 20.792 39.604 20.597 A 4.503 4.503 0 0 1 40.388 20.529 A 4.844 4.844 0 0 1 41.846 20.76 Q 42.984 21.117 43.374 22.287 Q 43.634 23.197 43.374 23.977 Q 43.114 24.757 42.626 25.472 Q 42.139 26.187 41.456 26.772 Q 40.774 27.357 40.124 27.812 Q 39.019 28.527 37.849 29.015 Q 36.679 29.502 35.444 29.892 Q 35.054 30.022 34.664 30.12 Q 34.274 30.217 33.884 30.347 L 33.104 30.542 Q 32.974 30.542 32.909 30.575 Q 32.844 30.607 32.714 30.607 A 0.1 0.1 0 0 0 32.649 30.737 Q 32.649 30.867 32.584 30.867 Q 32.064 32.557 32.064 34.117 Q 32.129 34.637 32.259 35.222 Q 32.389 35.807 32.779 36.262 Q 33.559 36.912 34.404 36.912 Q 35.314 37.042 36.224 36.75 Q 37.134 36.457 37.979 36.067 Q 39.084 35.417 40.124 34.605 Q 41.164 33.792 42.139 32.882 Q 42.724 32.362 43.276 31.745 Q 43.829 31.127 44.349 30.542 L 45.519 29.112 A 0.713 0.713 0 0 1 45.756 28.882 A 13.563 13.563 0 0 1 47.014 27.065 Q 48.054 25.797 49.289 24.692 Q 50.264 23.782 51.369 22.97 Q 52.474 22.157 53.709 21.572 Q 55.204 20.857 56.861 20.5 A 10.21 10.21 0 0 1 59.02 20.269 A 10.364 10.364 0 0 1 60.209 20.337 Q 60.534 20.402 60.794 20.435 Q 61.054 20.467 61.379 20.597 Q 61.769 20.727 61.834 21.02 Q 61.899 21.312 61.801 21.67 Q 61.704 22.027 61.509 22.385 Q 61.314 22.742 61.249 22.937 Q 60.664 24.237 60.046 25.472 Q 59.429 26.707 58.714 28.007 Q 58.519 28.397 58.291 28.787 Q 58.064 29.177 57.804 29.567 Q 57.609 29.957 57.414 30.315 Q 57.219 30.672 57.089 31.127 Q 56.829 31.842 56.601 32.59 Q 56.374 33.337 56.244 34.117 Q 56.114 34.702 56.081 35.385 A 2.591 2.591 0 0 0 56.078 35.508 A 2.319 2.319 0 0 0 56.374 36.652 Q 56.569 37.042 57.024 37.205 Q 57.479 37.367 57.934 37.237 Q 58.454 37.107 58.909 36.88 Q 59.364 36.652 59.754 36.327 L 60.794 35.417 Q 61.314 34.962 61.769 34.442 Q 63.069 33.142 64.239 31.777 L 66.579 29.047 A 0.704 0.704 0 0 1 66.87 28.853 A 2.125 2.125 0 0 0 66.904 28.787 L 68.854 26.317 Q 69.569 25.537 70.284 24.79 Q 70.999 24.042 71.779 23.327 Q 72.494 22.677 73.209 22.157 Q 73.924 21.637 74.834 21.312 A 2.409 2.409 0 0 1 75.647 21.165 A 2.224 2.224 0 0 1 76.589 21.377 Q 77.434 21.767 77.759 22.807 Q 77.889 23.392 77.889 24.01 Q 77.889 24.627 77.759 25.212 Q 77.629 25.992 77.401 26.772 Q 77.174 27.552 76.849 28.332 Q 78.019 26.772 79.189 25.407 Q 80.164 24.302 81.269 23.327 Q 82.374 22.352 83.674 21.637 Q 84.584 21.117 85.916 20.857 Q 87.249 20.597 88.224 21.377 Q 88.679 21.767 88.874 22.32 A 2.967 2.967 0 0 1 89.041 23.315 A 3.331 3.331 0 0 1 89.036 23.49 Q 89.004 24.107 88.841 24.725 Q 88.679 25.342 88.549 25.797 Q 88.029 27.357 87.379 28.82 Q 86.729 30.282 86.079 31.777 Q 85.819 32.427 85.559 33.045 Q 85.299 33.662 85.104 34.377 Q 84.974 34.832 84.811 35.32 Q 84.649 35.807 84.714 36.327 Q 84.779 36.847 85.136 36.912 Q 85.494 36.977 85.949 36.88 Q 86.404 36.782 86.859 36.587 Q 87.314 36.392 87.509 36.262 Q 88.549 35.612 89.394 34.8 Q 90.239 33.987 91.084 33.077 Q 91.864 32.167 92.709 31.03 Q 93.554 29.892 94.269 28.982 A 0.842 0.842 0 0 1 94.878 28.712 A 0.908 0.908 0 0 1 95.016 28.722 Q 95.439 28.787 95.569 29.242 Q 95.634 29.567 95.504 29.73 Q 95.374 29.892 95.244 30.087 Q 95.114 30.412 94.854 30.705 Q 94.594 30.997 94.399 31.257 Q 93.684 32.167 92.904 33.142 Q 92.124 34.117 91.279 34.962 Q 90.369 35.872 89.296 36.782 Q 88.224 37.692 86.924 38.147 Q 85.884 38.472 84.779 38.31 Q 83.674 38.147 83.349 36.912 A 2.907 2.907 0 0 1 83.262 36.205 A 3.119 3.119 0 0 1 83.284 35.84 Q 83.349 35.287 83.479 34.767 Q 83.609 34.052 83.869 33.37 Q 84.129 32.687 84.454 31.972 Q 85.039 30.542 85.656 29.145 Q 86.274 27.747 86.794 26.317 Q 87.314 25.017 87.509 23.977 Q 87.574 23.652 87.606 23.262 A 1.034 1.034 0 0 0 87.61 23.176 A 0.986 0.986 0 0 0 87.379 22.547 A 0.986 0.986 0 0 0 86.653 22.252 A 1.312 1.312 0 0 0 86.566 22.255 Q 86.079 22.287 85.754 22.417 Q 85.364 22.482 84.974 22.645 Q 84.584 22.807 84.259 23.002 Q 82.374 23.977 80.944 25.57 Q 79.514 27.162 78.279 28.852 Q 77.044 30.542 75.939 32.265 Q 74.834 33.987 73.794 35.807 Q 73.469 36.327 73.176 36.912 Q 72.884 37.497 72.494 38.017 Q 72.364 38.277 72.039 38.407 Q 71.714 38.537 71.389 38.407 A 0.567 0.567 0 0 1 70.955 37.887 A 0.888 0.888 0 0 1 71.064 37.497 L 71.584 36.327 Q 72.429 34.637 73.241 32.98 Q 74.054 31.322 74.769 29.632 Q 75.159 28.657 75.549 27.65 Q 75.939 26.642 76.199 25.537 Q 76.394 24.757 76.394 23.912 Q 76.459 23.587 76.394 23.23 Q 76.329 22.872 76.004 22.677 A 0.994 0.994 0 0 0 75.632 22.603 A 0.965 0.965 0 0 0 75.354 22.645 Q 75.029 22.742 74.704 22.872 Q 73.859 23.457 73.014 24.172 Q 71.909 25.147 70.901 26.252 Q 69.894 27.357 68.984 28.462 L 68.009 29.762 Q 67.814 30.022 67.586 30.185 A 0.475 0.475 0 0 1 67.542 30.213 A 3.546 3.546 0 0 1 67.359 30.412 Q 66.839 30.932 66.384 31.485 Q 65.929 32.037 65.474 32.557 L 63.264 35.027 Q 62.159 36.262 60.859 37.302 Q 59.949 38.082 58.746 38.57 A 2.907 2.907 0 0 1 57.646 38.791 A 3.104 3.104 0 0 1 56.309 38.472 Q 54.944 37.887 54.781 36.555 A 9.943 9.943 0 0 1 54.707 35.35 A 9.612 9.612 0 0 1 54.814 33.922 Q 53.904 35.092 52.766 36.165 Q 51.629 37.237 50.329 37.952 Q 49.224 38.472 47.859 38.635 Q 46.494 38.797 45.389 38.082 Q 44.479 37.497 44.121 36.522 Q 43.764 35.547 43.764 34.507 A 8.333 8.333 0 0 1 43.965 33.071 L 43.276 33.76 Q 42.594 34.442 41.814 35.157 Q 40.254 36.457 38.271 37.562 Q 36.289 38.667 34.144 38.407 Q 33.104 38.277 32.291 37.725 Q 31.479 37.172 31.024 36.197 Q 30.504 35.092 30.569 33.825 A 14.688 14.688 0 0 1 30.708 32.4 A 14.397 14.397 0 0 1 28.164 34.182 Q 27.579 34.507 26.961 34.767 Q 26.344 35.027 25.694 35.287 Z M 56.309 29.047 L 56.894 27.812 Q 57.154 27.162 57.414 26.577 Q 57.674 25.992 57.999 25.407 Q 58.519 24.497 59.006 23.62 Q 59.494 22.742 60.014 21.832 Q 58.519 21.637 57.024 21.962 Q 55.529 22.287 54.229 22.937 Q 52.929 23.587 51.856 24.432 Q 50.784 25.277 49.809 26.252 Q 48.639 27.357 47.664 28.657 Q 46.689 29.957 46.039 31.452 Q 45.649 32.362 45.389 33.467 Q 45.129 34.572 45.389 35.612 Q 45.519 36.067 45.746 36.457 Q 45.974 36.847 46.429 37.042 A 2.358 2.358 0 0 0 47.263 37.189 A 2.89 2.89 0 0 0 47.566 37.172 Q 48.184 37.107 48.704 36.977 Q 49.809 36.652 50.686 36.002 Q 51.564 35.352 52.344 34.572 Q 53.254 33.662 54.066 32.557 Q 54.879 31.452 55.594 30.347 Q 55.854 30.022 56.016 29.697 Q 56.179 29.372 56.309 29.047 Z M 17.114 8.962 Q 17.114 10.327 17.504 11.497 Q 17.634 11.237 18.024 10.717 Q 18.934 9.417 19.811 8.117 Q 20.689 6.817 21.599 5.517 Q 21.989 4.997 22.411 4.445 Q 22.834 3.892 23.094 3.242 Q 23.224 2.722 23.191 2.137 Q 23.159 1.552 22.444 1.487 A 2.124 2.124 0 0 0 22.143 1.466 A 2.245 2.245 0 0 0 20.721 2.007 Q 19.909 2.657 19.389 3.307 Q 18.414 4.477 17.764 5.94 Q 17.114 7.402 17.114 8.962 Z M 11.069 38.797 Q 11.524 39.122 12.076 39.187 Q 12.629 39.252 13.149 39.252 Q 13.864 39.317 14.579 39.22 Q 15.294 39.122 16.009 38.992 Q 17.634 38.667 19.161 38.017 Q 20.689 37.367 21.924 36.262 Q 20.039 36.587 18.219 36.652 Q 16.399 36.717 14.514 36.847 L 13.084 36.977 Q 12.369 37.042 11.719 37.367 Q 11.329 37.497 10.906 37.985 A 0.603 0.603 0 0 0 10.729 38.365 A 0.53 0.53 0 0 0 11.069 38.797 Z M 40.059 22.027 Q 38.954 22.157 38.011 22.84 Q 37.069 23.522 36.354 24.302 Q 34.599 26.252 33.364 28.917 Q 35.379 28.397 37.426 27.552 Q 39.474 26.707 40.904 25.212 Q 41.814 24.302 42.009 23.327 Q 42.139 22.417 41.456 22.157 A 2.578 2.578 0 0 0 40.532 21.984 A 2.64 2.64 0 0 0 40.059 22.027 Z"/></g></svg>